<svg width="14" height="14" viewBox="0 0 14 14" fill="none" xmlns="http://www.w3.org/2000/svg">
<path d="M6.499 0.873326C6.80893 0.693894 7.19115 0.693894 7.50108 0.873326L12.0427 3.50271C12.3516 3.6815 12.5417 4.0113 12.5417 4.36814V9.6317C12.5417 9.98854 12.3516 10.3183 12.0427 10.4971L7.50108 13.1265C7.19115 13.3059 6.80893 13.3059 6.499 13.1265L1.95734 10.4971C1.64852 10.3183 1.45837 9.98854 1.45837 9.6317V4.36814C1.45837 4.0113 1.64852 3.6815 1.95734 3.50271L6.499 0.873326ZM7.50108 2.22141C7.19115 2.04198 6.80893 2.04198 6.499 2.22141L3.124 4.17536C2.81519 4.35415 2.62504 4.68395 2.62504 5.04079V8.95906C2.62504 9.3159 2.81519 9.6457 3.12401 9.82449L6.49901 11.7784C6.80893 11.9579 7.19115 11.9579 7.50108 11.7784L10.8761 9.82449C11.1849 9.6457 11.375 9.3159 11.375 8.95906V5.04079C11.375 4.68395 11.1849 4.35415 10.8761 4.17536L7.50108 2.22141ZM7.00004 9.33325C5.71138 9.33325 4.66671 8.28856 4.66671 6.99992C4.66671 5.71125 5.71138 4.66659 7.00004 4.66659C8.28868 4.66659 9.33337 5.71125 9.33337 6.99992C9.33337 8.28856 8.28868 9.33325 7.00004 9.33325ZM7.00004 8.16659C7.64439 8.16659 8.16671 7.64427 8.16671 6.99992C8.16671 6.35557 7.64439 5.83325 7.00004 5.83325C6.35569 5.83325 5.83337 6.35557 5.83337 6.99992C5.83337 7.64427 6.35569 8.16659 7.00004 8.16659Z" fill="white"/>
</svg>
